<svg id="Layer_1" enable-background="new 0 0 512.911 512.911" height="512" viewBox="0 0 512.911 512.911" width="512" xmlns="http://www.w3.org/2000/svg"><g><g><g><path d="m286.715 76.548c-.71 0-1.428-.047-2.152-.145-8.759-1.178-14.904-9.232-13.726-17.991l5.99-44.541c1.177-8.759 9.223-14.905 17.991-13.726 8.759 1.178 14.904 9.233 13.726 17.991l-5.99 44.541c-1.081 8.035-7.95 13.871-15.839 13.871z" fill="#00767a"/></g></g><path d="m284.563 76.272c.724.097 1.442.145 2.152.145 7.889 0 14.758-5.836 15.838-13.871l5.99-44.541c1.178-8.758-4.967-16.813-13.726-17.991-.059-.008-.117-.007-.175-.015l-10.68 76.161c.202.035.397.085.601.112z" fill="#004244"/><g><g><path d="m226.678 501.292c-.723 0-1.454-.049-2.192-.15-8.755-1.2-14.88-9.269-13.681-18.024l25.173-183.771c1.199-8.755 9.257-14.883 18.025-13.681 8.755 1.2 14.88 9.269 13.681 18.024l-25.172 183.77c-1.098 8.019-7.96 13.832-15.834 13.832z" fill="#00969c"/></g></g><path d="m242.512 487.2 25.173-183.771c1.172-8.557-4.66-16.441-13.098-17.914l-8.545 60.935-21.556 154.432 15.218-6.604c1.446-2.036 2.446-4.433 2.808-7.078z" fill="#00767a"/><g><g><path d="m256.138 406.546c-.753 0-1.515-.053-2.281-.163l-33.658-4.807c-8.748-1.249-14.828-9.354-13.579-18.102s9.359-14.831 18.102-13.578l33.658 4.806c8.748 1.249 14.828 9.354 13.579 18.102-1.14 7.983-7.986 13.742-15.821 13.742z" fill="#00767a"/></g></g><path d="m6.581 512.759 501.278.152c2.518.001 4.559-2.04 4.559-4.558 0-5.144-4.17-9.314-9.314-9.314h-5.504c-84.547 0-165.734-33.826-324.784-33.826-71.905 1.008-127.435 5.85-167.586 14.813-2.798.625-4.778 3.111-4.777 5.978l.008 20.637c.002 3.378 2.741 6.117 6.12 6.118z" fill="#fdbf00"/><path d="m512.411 291.39c5.334-295.605-451.718-331.145-511.129-59.041-1.261 5.774 2.108 11.559 7.738 13.356l135.244 43.171c.708.226 1.436.383 2.174.468l.246.028c.853.098 1.711-.132 2.4-.643l117.616-87.342c1.474-1.095 3.553-.811 4.679.64l85.941 110.647c.557.716 1.378 1.179 2.279 1.283.746.086 1.498.099 2.246.038l140.009-11.37c5.879-.479 10.451-5.337 10.557-11.235z" fill="#ff712f"/><path d="m238.029 404.123 15.828 2.26c.767.11 1.528.163 2.281.163 7.835 0 14.681-5.76 15.821-13.741 1.249-8.748-4.83-16.853-13.579-18.102l-15.928-2.275z" fill="#004244"/><path d="m287.691 49.698-30.661 218.651-4.659 33.226 108.349 12.51 141.246-11.471c1.774-.3 9.898-1.104 10.442-11.104 2.682-145.2-106.175-227.678-224.717-241.812z" fill="#ff4b00"/><path d="m360.718 314.085s15.721-158.857-73.027-264.387c-123.23 75.624-141.825 239.612-141.825 239.612z" fill="#fff587"/><path d="m287.691 49.698-30.574 218.028-4.746 33.848 108.349 12.51c0 .001 14.695-158.852-73.029-264.386z" fill="#ffef31"/></g></svg>